<svg xmlns="http://www.w3.org/2000/svg" viewBox="0 0 70.87 75.93"><defs><style>.cls-1{fill:red;}.cls-2{fill:#fff;}</style></defs><g id="Capa_2" data-name="Capa 2"><g id="Capa_1-2" data-name="Capa 1"><path class="cls-1" d="M67.4,17.38,38.9.93A6.94,6.94,0,0,0,32,.93L3.47,17.38a7,7,0,0,0-3.47,6V52.54a7,7,0,0,0,3.47,6L32,75a6.94,6.94,0,0,0,6.94,0L67.4,58.55a7,7,0,0,0,3.47-6V23.39A7,7,0,0,0,67.4,17.38Z"/><path d="M66.27,19.33,37.78,2.88a4.71,4.71,0,0,0-2.35-.63,4.64,4.64,0,0,0-2.34.63L4.59,19.33a4.68,4.68,0,0,0-2.34,4.06V52.54A4.67,4.67,0,0,0,4.59,56.6l28.5,16.45a4.64,4.64,0,0,0,2.34.63,4.71,4.71,0,0,0,2.35-.63L66.27,56.6a4.68,4.68,0,0,0,2.35-4.06V23.39A4.69,4.69,0,0,0,66.27,19.33Z"/><path class="cls-1" d="M5.72,22.65,31.06,8,33.6,9.75l-.06,11L31,25.44l-5.71,3.38,7.17,3,0,3-7.54,4.53-9.1-5L13,36.07V46.55L5.72,50.92Zm20.77-1.13V18.11L13,26v3.44Z"/><path class="cls-2" d="M37.5,6.46,62,20.63l2.62,4.81V33.9l-1.76,1.22L65.4,40v7.78l-2.62,1.67L37.5,33.8ZM57.4,29V25L44.3,17.3v3.86Zm.8,10.61V35.28L44.3,26.91V31.1Z"/><path class="cls-2" d="M13.81,55.61,12.23,53l.12-.61,3.51-2.16.91,1.49-.95.58-.36-.59-1.91,1.18.95,1.55,2.87-1.76.55.9-3.51,2.16Z"/><path class="cls-2" d="M17.63,49.18,21.16,47l.61.17.81,1.32-.13.61-.81.5,1.57.26.23.36-1.08.67-2.05-.47-.39.24.78,1.25-1,.62Zm3.7-.47-.26-.41-1.88,1.16.25.41Z"/><path class="cls-2" d="M25,48.68l-1.12-2.81.23-.58,3.59-1.42.56.26,1.12,2.81-.23.58L25.56,49Zm3.06-1.86-.67-1.7L25.19,46l.68,1.7Z"/><path class="cls-2" d="M31.14,45.9l3.37-.34,0-.42-2.89,0L31,44.68l-.12-1.19.38-.49,3.7-.38.11,1L32.13,44l0,.37h2.91l.54.47L35.74,46l-.38.5L31.25,47Z"/><path class="cls-2" d="M37.73,45.51l3.33.58.07-.41-2.78-.76-.41-.62.21-1.18.5-.37,3.66.63-.18,1-2.92-.5-.07.37,2.81.77.39.6-.22,1.23-.5.37-4.07-.71Z"/><path class="cls-2" d="M45.21,44.74l.58-.23,3.52,1.65-.44,1L46,45.79l-.27.57,2.24,1-.39.84-2.24-1-.56,1.2-1.08-.51Z"/><path class="cls-2" d="M49.63,49.91l1.21.74,1-1.68-1.2-.74.51-.84L54.6,49.5l-.51.84-1.21-.75-1,1.68,1.21.74-.52.84-3.42-2.1Z"/><path class="cls-2" d="M57.13,52.29l-1.51-.93.56-.89,4,2.46-.56.9-1.49-.92-1.51,2.45-1-.62Z"/><path class="cls-2" d="M46.4,57.28h-.34v-3a.49.49,0,0,0-.5-.49H43.12a.5.5,0,0,0-.5.49v-1.4a.57.57,0,0,0-.56-.57H39.75a.57.57,0,0,0-.56.57v4.39H31.67V52.89a.57.57,0,0,0-.56-.57H28.8a.57.57,0,0,0-.56.57v1.4a.49.49,0,0,0-.49-.49H25.3a.49.49,0,0,0-.49.49v3h-.34a.57.57,0,0,0-.57.56V60a.58.58,0,0,0,.57.57h.34v3a.49.49,0,0,0,.49.49h2.45a.49.49,0,0,0,.49-.49V65a.56.56,0,0,0,.56.57h2.31a.56.56,0,0,0,.56-.57V60.61h7.52V65a.56.56,0,0,0,.56.57h2.31a.56.56,0,0,0,.56-.57v-1.4a.5.5,0,0,0,.5.49h2.44a.49.49,0,0,0,.5-.49v-3h.34A.57.57,0,0,0,47,60v-2.2A.56.56,0,0,0,46.4,57.28Z"/></g></g></svg>